<?xml version="1.0" encoding="iso-8859-1"?>
<!-- Generator: Adobe Illustrator 19.0.0, SVG Export Plug-In . SVG Version: 6.00 Build 0)  -->
<svg version="1.1" id="Capa_1" xmlns="http://www.w3.org/2000/svg" xmlns:xlink="http://www.w3.org/1999/xlink" x="0px" y="0px"
	 viewBox="0 0 480.053 480.053" style="enable-background:new 0 0 480.053 480.053;" xml:space="preserve">
<linearGradient id="SVGID_1_" gradientUnits="userSpaceOnUse" x1="-58.0562" y1="596.6249" x2="4.5718" y2="596.6249" gradientTransform="matrix(8 0 0 -8 454.9523 5013.0264)">
	<stop  offset="0" style="stop-color:#006DF0"/>
	<stop  offset="1" style="stop-color:#00E7F0"/>
</linearGradient>
<path style="fill:url(#SVGID_1_);" d="M397.863,240.195c1.419-7.986,2.137-16.081,2.144-24.192
	c0.045-75.067-60.773-135.956-135.839-136.001c-19.431-0.012-38.639,4.143-56.329,12.185
	c-55.063-44.186-135.52-35.369-179.706,19.694c-32.865,40.955-37.341,97.843-11.286,143.434
	c-31.308,48.155-17.651,112.572,30.504,143.88c16.863,10.963,36.543,16.802,56.656,16.808h288
	c48.601,0.026,88.021-39.353,88.046-87.954C480.077,281.686,444.125,243.256,397.863,240.195z M128.007,80.003
	c23.037-0.012,45.513,7.106,64.344,20.376c-0.992,0.616-1.928,1.28-2.896,1.912s-2.152,1.384-3.2,2.112
	c-1.44,0.992-2.832,2.04-4.216,3.08c-0.952,0.72-1.92,1.408-2.848,2.144c-1.512,1.2-2.968,2.456-4.432,3.72
	c-0.736,0.64-1.504,1.248-2.232,1.904c-2.133,1.941-4.216,3.944-6.248,6.008c-0.104,0.104-0.192,0.216-0.288,0.312
	c-1.909,1.973-3.755,4-5.536,6.08c-0.632,0.744-1.216,1.52-1.84,2.272c-1.2,1.472-2.4,2.944-3.544,4.464
	c-0.688,0.912-1.32,1.848-1.984,2.776c-1.008,1.416-2.008,2.832-2.96,4.28c-0.656,1.008-1.28,2.04-1.912,3.064
	c-0.88,1.424-1.744,2.848-2.576,4.304c-0.608,1.072-1.184,2.16-1.76,3.248c-0.8,1.456-1.528,2.912-2.24,4.4
	c-0.552,1.12-1.072,2.256-1.6,3.4c-0.672,1.499-1.317,3.003-1.936,4.512c-0.472,1.16-0.936,2.328-1.376,3.504
	c-0.584,1.544-1.128,3.112-1.648,4.688c-0.4,1.176-0.8,2.344-1.152,3.536c-0.496,1.6-0.936,3.264-1.368,4.912
	c-0.312,1.168-0.632,2.336-0.904,3.512c-0.408,1.736-0.752,3.496-1.096,5.248c-0.216,1.12-0.456,2.224-0.648,3.352
	c-0.328,1.96-0.576,3.944-0.8,5.928c-0.112,0.944-0.272,1.888-0.368,2.84c-0.296,2.944-0.52,5.912-0.632,8.904
	c-7.898-1.869-15.988-2.806-24.104-2.792c-3.898,0.013-7.792,0.248-11.664,0.704c-1.256,0.136-2.488,0.4-3.744,0.592
	c-2.576,0.384-5.144,0.8-7.68,1.384c-1.448,0.336-2.864,0.752-4.288,1.144c-2.296,0.632-4.576,1.304-6.824,2.088
	c-1.456,0.504-2.888,1.064-4.32,1.6c-2.168,0.864-4.288,1.792-6.4,2.8c-1.384,0.664-2.76,1.336-4.112,2.064
	c-2.104,1.12-4.144,2.344-6.168,3.608c-1.24,0.8-2.488,1.52-3.696,2.352c-2.144,1.464-4.192,3.064-6.232,4.688
	c-0.968,0.8-1.976,1.504-2.928,2.32c-2.745,2.365-5.365,4.873-7.848,7.512c-0.168,0.176-0.352,0.328-0.512,0.504l-0.08,0.072
	C0.21,185.93,23.075,118.802,78.58,91.502C93.959,83.938,110.868,80.004,128.007,80.003L128.007,80.003z M392.007,400.003h-288
	c-48.601,0-88-39.399-88-88s39.399-88,88-88c10.037-0.035,20.004,1.673,29.456,5.048c4.158,1.494,8.74-0.666,10.233-4.825
	c0.394-1.096,0.543-2.264,0.439-3.423c-0.128-1.6-0.128-3.2-0.128-4.8c-0.003-8.449,0.874-16.876,2.616-25.144
	c6.395-30.326,24.375-56.957,50.112-74.224c4.357-2.956,8.899-5.628,13.6-8c59.276-29.642,131.358-5.62,161,53.656
	c8.339,16.676,12.678,35.067,12.672,53.712c-0.018,10.161-1.281,20.282-3.76,30.136c-1.073,4.286,1.532,8.63,5.818,9.703
	c0.794,0.199,1.614,0.274,2.43,0.225c1.112-0.064,2.304-0.064,3.512-0.064c39.764,0,72,32.236,72,72
	S431.771,400.003,392.007,400.003L392.007,400.003z"/>
<g>
</g>
<g>
</g>
<g>
</g>
<g>
</g>
<g>
</g>
<g>
</g>
<g>
</g>
<g>
</g>
<g>
</g>
<g>
</g>
<g>
</g>
<g>
</g>
<g>
</g>
<g>
</g>
<g>
</g>
</svg>
