<?xml version="1.0" encoding="iso-8859-1"?>
<!-- Generator: Adobe Illustrator 19.0.0, SVG Export Plug-In . SVG Version: 6.00 Build 0)  -->
<svg version="1.1" id="Capa_1" xmlns="http://www.w3.org/2000/svg" xmlns:xlink="http://www.w3.org/1999/xlink" x="0px" y="0px"
	 viewBox="0 0 481.512 481.512" style="enable-background:new 0 0 481.512 481.512;" xml:space="preserve">
<linearGradient id="SVGID_1_" gradientUnits="userSpaceOnUse" x1="-53.7104" y1="575.7061" x2="3.7306" y2="575.7061" gradientTransform="matrix(8 0 0 -8 444.7405 4846.4043)">
	<stop  offset="0" style="stop-color:#006DF0"/>
	<stop  offset="1" style="stop-color:#00E7F0"/>
</linearGradient>
<path style="fill:url(#SVGID_1_);" d="M399.322,293.681c1.419-7.986,2.137-16.081,2.144-24.192
	c-0.084-75.076-60.924-135.916-136-136c-8.195,0.025-16.371,0.78-24.432,2.256c0.264-3.36,0.432-6.776,0.432-10.256
	c-0.015-46.864-25.598-89.987-66.72-112.464c-3.865-2.141-8.734-0.743-10.874,3.122c-1.333,2.408-1.336,5.332-0.006,7.742
	c29.508,54.439,9.297,122.492-45.142,152c-33.329,18.065-73.529,18.065-106.858,0c-3.868-2.135-8.735-0.73-10.87,3.138
	c-1.33,2.41-1.328,5.334,0.006,7.742c25.186,46.817,76.905,72.951,129.536,65.456c-0.496,3.995-0.821,8.013-0.976,12.056
	C73.666,251.062,17.637,285.658,4.418,341.554S25.795,453.478,81.69,466.698c7.791,1.843,15.769,2.779,23.775,2.792h288
	c48.601,0.025,88.021-39.353,88.046-87.954C481.536,335.172,445.584,296.742,399.322,293.681L399.322,293.681z M30.346,200.609
	c68.05,19.343,138.896-20.141,158.239-88.191c3.23-11.362,4.872-23.117,4.881-34.929c-0.004-11.875-1.646-23.693-4.88-35.12
	c23.482,21.254,36.878,51.448,36.88,83.12c0.009,4.758-0.287,9.512-0.888,14.232c-0.712,0.224-1.408,0.504-2.112,0.744
	c-1.328,0.437-2.643,0.893-3.944,1.368c-1.6,0.576-3.112,1.176-4.648,1.8c-1.272,0.52-2.536,1.048-3.784,1.6
	c-1.52,0.672-3.024,1.384-4.512,2.112c-1.216,0.592-2.4,1.184-3.616,1.808c-1.48,0.8-2.936,1.6-4.384,2.4
	c-1.144,0.656-2.296,1.296-3.416,1.992c-1.448,0.888-2.864,1.824-4.272,2.76c-1.064,0.712-2.144,1.4-3.2,2.136
	c-1.448,1.024-2.848,2.104-4.256,3.2c-0.944,0.728-1.904,1.424-2.824,2.168c-1.536,1.248-3.016,2.56-4.496,3.864
	c-0.728,0.648-1.488,1.264-2.208,1.928c-4.338,4.017-8.408,8.314-12.184,12.864c-0.592,0.712-1.136,1.464-1.712,2.184
	c-1.264,1.6-2.528,3.2-3.72,4.8c-0.664,0.92-1.272,1.864-1.912,2.8c-1.048,1.512-2.088,3.024-3.072,4.584
	c-0.64,1.024-1.232,2.072-1.848,3.112c-0.904,1.52-1.8,3.048-2.648,4.608c-0.592,1.104-1.152,2.232-1.712,3.352
	c-0.8,1.552-1.6,3.104-2.28,4.688c-0.536,1.168-1.04,2.36-1.544,3.544c-0.672,1.6-1.328,3.2-1.936,4.8
	c-0.472,1.232-0.912,2.48-1.344,3.728c-0.56,1.6-1.096,3.24-1.6,4.88c-0.389,1.285-0.763,2.581-1.12,3.888
	c-0.208,0.736-0.448,1.448-0.64,2.192C95.464,242.616,56.394,229.371,30.346,200.609L30.346,200.609z M393.466,453.489h-288
	c-48.601,0-88-39.399-88-88s39.399-88,88-88c10.037-0.035,20.004,1.673,29.456,5.048c4.158,1.494,8.74-0.667,10.233-4.825
	c0.394-1.096,0.543-2.264,0.439-3.423c-0.128-1.6-0.128-3.2-0.128-4.8c-0.008-8.519,0.871-17.015,2.624-25.352
	c0.592-2.752,1.275-5.464,2.048-8.136c11.556-40.187,43.286-71.405,83.656-82.304c10.328-2.784,20.976-4.198,31.672-4.208
	c66.243,0.075,119.925,53.757,120,120c-0.018,10.161-1.281,20.282-3.76,30.136c-0.621,2.473-0.027,5.093,1.6,7.056
	c1.614,1.981,4.091,3.053,6.64,2.872c1.12-0.064,2.312-0.064,3.52-0.064c39.764,0,72,32.236,72,72S433.23,453.489,393.466,453.489
	L393.466,453.489z"/>
<g>
</g>
<g>
</g>
<g>
</g>
<g>
</g>
<g>
</g>
<g>
</g>
<g>
</g>
<g>
</g>
<g>
</g>
<g>
</g>
<g>
</g>
<g>
</g>
<g>
</g>
<g>
</g>
<g>
</g>
</svg>
