<?xml version="1.0" encoding="iso-8859-1"?>
<!-- Generator: Adobe Illustrator 19.0.0, SVG Export Plug-In . SVG Version: 6.00 Build 0)  -->
<svg version="1.1" id="Capa_1" xmlns="http://www.w3.org/2000/svg" xmlns:xlink="http://www.w3.org/1999/xlink" x="0px" y="0px"
	 viewBox="0 0 479.889 479.889" style="enable-background:new 0 0 479.889 479.889;" xml:space="preserve">
<linearGradient id="SVGID_1_" gradientUnits="userSpaceOnUse" x1="-56.8583" y1="587.6267" x2="6.0247" y2="587.6267" gradientTransform="matrix(8 0 0 -8 456.1222 4940.958)">
	<stop  offset="0" style="stop-color:#006DF0"/>
	<stop  offset="1" style="stop-color:#00E7F0"/>
</linearGradient>
<path style="fill:url(#SVGID_1_);" d="M391.84,407.995h-288C46.402,407.907-0.088,361.273,0,303.835s46.723-103.928,104.16-103.84
	c8.006,0.012,15.984,0.949,23.775,2.792C130.757,127.73,193.89,69.17,268.948,71.992c73.11,2.748,130.945,62.842,130.892,136.004
	c-0.007,8.111-0.725,16.206-2.144,24.192c48.495,3.209,85.207,45.123,81.998,93.618C476.633,372.068,438.203,408.02,391.84,407.995z
	 M103.84,215.995c-48.601,0-88,39.399-88,88s39.399,88,88,88h288c39.764,0,72-32.236,72-72s-32.236-72-72-72
	c-1.208,0-2.4,0-3.512,0.064c-4.41,0.269-8.203-3.088-8.473-7.498c-0.05-0.817,0.026-1.636,0.225-2.43
	c2.479-9.854,3.742-19.975,3.76-30.136c0-66.274-53.726-120-120-120s-120,53.726-120,120c0,1.6,0,3.2,0.128,4.8
	c0.383,4.402-2.874,8.281-7.276,8.664c-1.151,0.1-2.309-0.05-3.396-0.44C123.842,217.653,113.875,215.953,103.84,215.995
	L103.84,215.995z"/>
<g>
</g>
<g>
</g>
<g>
</g>
<g>
</g>
<g>
</g>
<g>
</g>
<g>
</g>
<g>
</g>
<g>
</g>
<g>
</g>
<g>
</g>
<g>
</g>
<g>
</g>
<g>
</g>
<g>
</g>
</svg>
