<?xml version="1.0" encoding="iso-8859-1"?>
<!-- Generator: Adobe Illustrator 19.0.0, SVG Export Plug-In . SVG Version: 6.00 Build 0)  -->
<svg version="1.1" id="Capa_1" xmlns="http://www.w3.org/2000/svg" xmlns:xlink="http://www.w3.org/1999/xlink" x="0px" y="0px"
	 viewBox="0 0 479.889 479.889" style="enable-background:new 0 0 479.889 479.889;" xml:space="preserve">
<linearGradient id="SVGID_1_" gradientUnits="userSpaceOnUse" x1="-55.6613" y1="588.6267" x2="1.5847" y2="588.6267" gradientTransform="matrix(8 0 0 -8 456.1224 4904.958)">
	<stop  offset="0" style="stop-color:#006DF0"/>
	<stop  offset="1" style="stop-color:#00E7F0"/>
</linearGradient>
<path style="fill:url(#SVGID_1_);" d="M391.84,363.995c-4.418,0-8-3.582-8-8s3.582-8,8-8c39.764,0,72-32.236,72-72s-32.236-72-72-72
	c-1.208,0-2.4,0-3.512,0.064c-4.41,0.269-8.203-3.088-8.473-7.498c-0.05-0.817,0.026-1.636,0.225-2.43
	c2.481-9.854,3.744-19.975,3.76-30.136c0-66.274-53.726-120-120-120s-120,53.726-120,120c0,1.6,0,3.2,0.128,4.84
	c0.376,4.402-2.888,8.276-7.29,8.652c-1.149,0.098-2.305-0.053-3.39-0.444c-9.45-3.376-19.414-5.084-29.448-5.048
	c-48.601,0-88,39.399-88,88s39.399,88,88,88c4.418,0,8,3.582,8,8s-3.582,8-8,8C46.402,363.907-0.088,317.273,0,259.835
	s46.723-103.928,104.16-103.84c8.006,0.012,15.984,0.949,23.775,2.792C130.757,83.73,193.89,25.17,268.948,27.992
	c73.11,2.748,130.945,62.842,130.892,136.004c-0.006,8.111-0.724,16.206-2.144,24.192c48.495,3.209,85.207,45.123,81.998,93.618
	C476.633,328.068,438.203,364.02,391.84,363.995L391.84,363.995z"/>
<g>
	
		<linearGradient id="SVGID_2_" gradientUnits="userSpaceOnUse" x1="-55.6613" y1="577.2148" x2="1.5847" y2="577.2148" gradientTransform="matrix(8 0 0 -8 456.1224 4904.958)">
		<stop  offset="0" style="stop-color:#006DF0"/>
		<stop  offset="1" style="stop-color:#00E7F0"/>
	</linearGradient>
	<path style="fill:url(#SVGID_2_);" d="M183.84,355.995c-22.08-0.026-39.974-17.92-40-40c0-18.664,27.392-72.96,32.88-83.656
		l7.12-13.856l7.12,13.856c5.488,10.696,32.88,64.992,32.88,83.656C223.813,338.076,205.92,355.969,183.84,355.995z M183.84,253.955
		c-11.2,23.2-24,52.672-24,62.04c0,13.255,10.745,24,24,24s24-10.745,24-24C207.84,306.627,195.04,277.187,183.84,253.955z"/>
	
		<linearGradient id="SVGID_3_" gradientUnits="userSpaceOnUse" x1="-55.6613" y1="577.2148" x2="1.5847" y2="577.2148" gradientTransform="matrix(8 0 0 -8 456.1224 4904.958)">
		<stop  offset="0" style="stop-color:#006DF0"/>
		<stop  offset="1" style="stop-color:#00E7F0"/>
	</linearGradient>
	<path style="fill:url(#SVGID_3_);" d="M295.84,355.995c-22.08-0.026-39.974-17.92-40-40c0-18.664,27.392-72.96,32.88-83.656
		l7.12-13.856l7.12,13.856c5.488,10.696,32.88,64.992,32.88,83.656C335.813,338.076,317.92,355.969,295.84,355.995z M295.84,253.955
		c-11.2,23.2-24,52.672-24,62.04c0,13.255,10.745,24,24,24s24-10.745,24-24C319.84,306.627,307.04,277.187,295.84,253.955z"/>
	
		<linearGradient id="SVGID_4_" gradientUnits="userSpaceOnUse" x1="-55.6613" y1="563.1414" x2="1.5847" y2="563.1414" gradientTransform="matrix(8 0 0 -8 456.1224 4904.958)">
		<stop  offset="0" style="stop-color:#006DF0"/>
		<stop  offset="1" style="stop-color:#00E7F0"/>
	</linearGradient>
	<path style="fill:url(#SVGID_4_);" d="M239.84,451.995c-17.673,0-32-14.327-32-32c0-14.608,20.84-52.472,25.024-59.92l6.976-12.416
		l6.976,12.416c4.224,7.448,25.024,45.312,25.024,59.92C271.84,437.668,257.513,451.995,239.84,451.995z M239.84,380.891
		c-7.12,12.23-12.505,25.391-16,39.104c0,8.837,7.163,16,16,16c8.837,0,16-7.163,16-16
		C252.348,406.281,246.963,393.12,239.84,380.891z"/>
	
		<linearGradient id="SVGID_5_" gradientUnits="userSpaceOnUse" x1="-55.6613" y1="563.1414" x2="1.5847" y2="563.1414" gradientTransform="matrix(8 0 0 -8 456.1224 4904.958)">
		<stop  offset="0" style="stop-color:#006DF0"/>
		<stop  offset="1" style="stop-color:#00E7F0"/>
	</linearGradient>
	<path style="fill:url(#SVGID_5_);" d="M143.84,451.995c-17.673,0-32-14.327-32-32c0-14.608,20.84-52.472,25.024-59.92l6.976-12.416
		l6.976,12.416c4.224,7.448,25.024,45.312,25.024,59.92C175.84,437.668,161.513,451.995,143.84,451.995z M143.84,380.891
		c-7.12,12.23-12.505,25.391-16,39.104c0,8.837,7.163,16,16,16s16-7.163,16-16C156.348,406.281,150.963,393.12,143.84,380.891z"/>
	
		<linearGradient id="SVGID_6_" gradientUnits="userSpaceOnUse" x1="-55.6613" y1="563.1414" x2="1.5847" y2="563.1414" gradientTransform="matrix(8 0 0 -8 456.1224 4904.958)">
		<stop  offset="0" style="stop-color:#006DF0"/>
		<stop  offset="1" style="stop-color:#00E7F0"/>
	</linearGradient>
	<path style="fill:url(#SVGID_6_);" d="M335.84,451.995c-17.673,0-32-14.327-32-32c0-14.608,20.8-52.472,25.024-59.92l6.976-12.416
		l6.976,12.416c4.224,7.448,25.024,45.312,25.024,59.92C367.84,437.668,353.513,451.995,335.84,451.995z M335.84,380.891
		c-7.12,12.23-12.505,25.391-16,39.104c0,8.837,7.163,16,16,16s16-7.163,16-16C348.348,406.281,342.963,393.12,335.84,380.891z"/>
</g>
<g>
</g>
<g>
</g>
<g>
</g>
<g>
</g>
<g>
</g>
<g>
</g>
<g>
</g>
<g>
</g>
<g>
</g>
<g>
</g>
<g>
</g>
<g>
</g>
<g>
</g>
<g>
</g>
<g>
</g>
</svg>
