<?xml version="1.0" encoding="iso-8859-1"?>
<!-- Generator: Adobe Illustrator 19.0.0, SVG Export Plug-In . SVG Version: 6.00 Build 0)  -->
<svg version="1.1" id="Capa_1" xmlns="http://www.w3.org/2000/svg" xmlns:xlink="http://www.w3.org/1999/xlink" x="0px" y="0px"
	 viewBox="0 0 480.107 480.107" style="enable-background:new 0 0 480.107 480.107;" xml:space="preserve">
<linearGradient id="SVGID_1_" gradientUnits="userSpaceOnUse" x1="-57.7681" y1="556.1933" x2="4.5459" y2="556.1933" gradientTransform="matrix(8 0 0 -8 454.5738 4869.4258)">
	<stop  offset="0" style="stop-color:#006DF0"/>
	<stop  offset="1" style="stop-color:#00E7F0"/>
</linearGradient>
<path style="fill:url(#SVGID_1_);" d="M240.061,472.047c-17.673,0-32-14.327-32-32c0-14.608,20.84-52.48,25.024-59.912l6.976-12.424
	l6.976,12.424c4.224,7.432,25.024,45.304,25.024,59.912C272.061,457.72,257.734,472.047,240.061,472.047z M240.061,400.943
	c-7.124,12.228-12.509,25.389-16,39.104c0,8.837,7.163,16,16,16c8.837,0,16-7.163,16-16
	C252.57,426.333,247.185,413.172,240.061,400.943z"/>
<g>
	
		<linearGradient id="SVGID_2_" gradientUnits="userSpaceOnUse" x1="-57.7681" y1="562.1933" x2="4.5459" y2="562.1933" gradientTransform="matrix(8 0 0 -8 454.5738 4869.4258)">
		<stop  offset="0" style="stop-color:#006DF0"/>
		<stop  offset="1" style="stop-color:#00E7F0"/>
	</linearGradient>
	<path style="fill:url(#SVGID_2_);" d="M152.061,424.047c-17.673,0-32-14.327-32-32c0-14.608,20.84-52.48,25.024-59.912
		l6.976-12.424l6.976,12.424c4.224,7.432,25.024,45.304,25.024,59.912C184.061,409.72,169.734,424.047,152.061,424.047z
		 M152.061,352.943c-7.124,12.228-12.509,25.389-16,39.104c0,8.837,7.163,16,16,16s16-7.163,16-16
		C164.57,378.333,159.185,365.172,152.061,352.943z"/>
	
		<linearGradient id="SVGID_3_" gradientUnits="userSpaceOnUse" x1="-57.7681" y1="560.1933" x2="4.5459" y2="560.1933" gradientTransform="matrix(8 0 0 -8 454.5738 4869.4258)">
		<stop  offset="0" style="stop-color:#006DF0"/>
		<stop  offset="1" style="stop-color:#00E7F0"/>
	</linearGradient>
	<path style="fill:url(#SVGID_3_);" d="M344.061,440.047c-17.673,0-32-14.327-32-32c0-14.608,20.8-52.48,25.024-59.912l6.976-12.424
		l6.976,12.424c4.224,7.432,25.024,45.304,25.024,59.912C376.061,425.72,361.734,440.047,344.061,440.047z M344.061,368.943
		c-7.124,12.228-12.509,25.389-16,39.104c0,8.837,7.163,16,16,16s16-7.163,16-16C356.57,394.333,351.185,381.172,344.061,368.943z"
		/>
	
		<linearGradient id="SVGID_4_" gradientUnits="userSpaceOnUse" x1="-57.7681" y1="570.1933" x2="4.5459" y2="570.1933" gradientTransform="matrix(8 0 0 -8 454.5738 4869.4258)">
		<stop  offset="0" style="stop-color:#006DF0"/>
		<stop  offset="1" style="stop-color:#00E7F0"/>
	</linearGradient>
	<path style="fill:url(#SVGID_4_);" d="M280.061,360.047c-17.673,0-32-14.327-32-32c0-14.608,20.8-52.48,25.024-59.912l6.976-12.424
		l6.976,12.424c4.224,7.432,25.024,45.304,25.024,59.912C312.061,345.72,297.734,360.047,280.061,360.047z M280.061,288.943
		c-7.124,12.228-12.509,25.389-16,39.104c0,8.837,7.163,16,16,16s16-7.163,16-16C292.57,314.333,287.185,301.172,280.061,288.943z"
		/>
	
		<linearGradient id="SVGID_5_" gradientUnits="userSpaceOnUse" x1="-57.7681" y1="575.1933" x2="4.5459" y2="575.1933" gradientTransform="matrix(8 0 0 -8 454.5738 4869.4258)">
		<stop  offset="0" style="stop-color:#006DF0"/>
		<stop  offset="1" style="stop-color:#00E7F0"/>
	</linearGradient>
	<path style="fill:url(#SVGID_5_);" d="M200.061,320.047c-17.673,0-32-14.327-32-32c0-14.608,20.84-52.48,25.024-59.912
		l6.976-12.424l6.976,12.424c4.224,7.432,25.024,45.304,25.024,59.912C232.061,305.72,217.734,320.047,200.061,320.047z
		 M200.061,248.943c-7.124,12.228-12.509,25.389-16,39.104c0,8.837,7.163,16,16,16s16-7.163,16-16
		C212.57,274.333,207.185,261.172,200.061,248.943z"/>
	
		<linearGradient id="SVGID_6_" gradientUnits="userSpaceOnUse" x1="-57.7681" y1="585.6715" x2="4.5459" y2="585.6715" gradientTransform="matrix(8 0 0 -8 454.5738 4869.4258)">
		<stop  offset="0" style="stop-color:#006DF0"/>
		<stop  offset="1" style="stop-color:#00E7F0"/>
	</linearGradient>
	<path style="fill:url(#SVGID_6_);" d="M397.917,184.239c1.42-7.986,2.138-16.081,2.144-24.192
		c0.045-75.067-60.773-135.956-135.839-136.001c-19.431-0.012-38.639,4.143-56.329,12.185C152.845-7.98,72.379,0.804,28.168,55.852
		C-4.734,96.819-9.22,153.745,16.861,199.359c-31.308,48.155-17.651,112.572,30.504,143.88
		c16.874,10.971,36.569,16.809,56.696,16.808c4.418,0,8-3.582,8-8s-3.582-8-8-8c-48.601,0-88-39.399-88-88s39.399-88,88-88
		c10.034-0.036,19.998,1.672,29.448,5.048c4.157,1.496,8.74-0.662,10.236-4.819c0.389-1.082,0.541-2.235,0.444-3.381
		c-0.128-1.648-0.128-3.248-0.128-4.848c-0.003-8.449,0.873-16.876,2.616-25.144c0.712-3.376,1.6-6.688,2.608-9.968
		c19.341-63.389,86.408-99.097,149.797-79.755c50.519,15.415,85.019,62.049,84.979,114.867c-0.016,10.161-1.279,20.282-3.76,30.136
		c-0.619,2.47-0.025,5.087,1.6,7.048c1.647,1.942,4.105,3.007,6.648,2.88c1.112-0.064,2.312-0.064,3.512-0.064
		c39.764,0.018,71.985,32.269,71.967,72.033c-0.018,39.739-32.228,71.949-71.967,71.967c-4.418,0-8,3.582-8,8s3.582,8,8,8
		c48.601,0.026,88.021-39.353,88.046-87.954C480.131,225.73,444.179,187.3,397.917,184.239z M104.061,152.047
		c-3.898,0.013-7.792,0.248-11.664,0.704c-1.256,0.136-2.488,0.4-3.736,0.584c-2.584,0.392-5.152,0.8-7.688,1.392
		c-1.448,0.336-2.864,0.752-4.288,1.144c-2.304,0.632-4.584,1.304-6.832,2.088c-1.448,0.504-2.872,1.064-4.296,1.6
		c-2.176,0.864-4.312,1.8-6.4,2.816c-1.376,0.656-2.744,1.328-4.096,2.048c-2.104,1.128-4.152,2.352-6.176,3.616
		c-1.24,0.8-2.48,1.52-3.688,2.352c-2.136,1.456-4.176,3.048-6.208,4.672c-0.984,0.8-2,1.52-2.96,2.344
		c-2.694,2.321-5.265,4.781-7.704,7.368c-0.208,0.224-0.448,0.424-0.664,0.648l-0.072,0.072
		C0.34,129.965,23.266,62.859,78.797,35.609c36.647-17.983,80.176-14.603,113.608,8.822c-0.968,0.6-1.888,1.256-2.84,1.872
		c-1.096,0.712-2.2,1.416-3.264,2.152c-1.416,0.984-2.792,2.016-4.168,3.048c-0.96,0.728-1.944,1.432-2.888,2.176
		c-1.496,1.184-2.928,2.4-4.368,3.664c-0.76,0.656-1.552,1.288-2.296,1.96c-2.133,1.936-4.211,3.933-6.232,5.992
		c-0.192,0.192-0.36,0.4-0.552,0.6c-1.808,1.877-3.563,3.805-5.264,5.784c-0.672,0.8-1.288,1.6-1.936,2.4
		c-1.168,1.432-2.344,2.856-3.448,4.336c-0.712,0.952-1.384,1.936-2.072,2.904c-0.976,1.368-1.944,2.736-2.864,4.136
		c-0.688,1.056-1.336,2.128-2,3.2c-0.8,1.376-1.68,2.752-2.48,4.152c-0.632,1.12-1.24,2.256-1.84,3.4
		c-0.744,1.4-1.472,2.808-2.168,4.24c-0.568,1.168-1.112,2.344-1.648,3.536c-0.648,1.44-1.272,2.888-1.872,4.36
		c-0.496,1.208-0.976,2.4-1.44,3.656c-0.552,1.488-1.072,2.984-1.6,4.488c-0.416,1.24-0.8,2.48-1.216,3.744
		c-0.472,1.544-0.888,3.104-1.304,4.664c-0.328,1.248-0.672,2.488-0.96,3.744c-0.392,1.648-0.712,3.32-1.04,4.984
		c-0.232,1.2-0.496,2.4-0.696,3.6c-0.312,1.864-0.544,3.752-0.8,5.6c-0.128,1.04-0.296,2.064-0.408,3.104
		c-0.296,2.936-0.512,5.896-0.624,8.88C120.233,152.953,112.16,152.027,104.061,152.047L104.061,152.047z"/>
</g>
<g>
</g>
<g>
</g>
<g>
</g>
<g>
</g>
<g>
</g>
<g>
</g>
<g>
</g>
<g>
</g>
<g>
</g>
<g>
</g>
<g>
</g>
<g>
</g>
<g>
</g>
<g>
</g>
<g>
</g>
</svg>
