<?xml version="1.0" encoding="iso-8859-1"?>
<!-- Generator: Adobe Illustrator 19.0.0, SVG Export Plug-In . SVG Version: 6.00 Build 0)  -->
<svg version="1.1" id="Capa_1" xmlns="http://www.w3.org/2000/svg" xmlns:xlink="http://www.w3.org/1999/xlink" x="0px" y="0px"
	 viewBox="0 0 481.512 481.512" style="enable-background:new 0 0 481.512 481.512;" xml:space="preserve">
<linearGradient id="SVGID_1_" gradientUnits="userSpaceOnUse" x1="-57.6384" y1="565.0898" x2="7.3726" y2="565.0898" gradientTransform="matrix(8 0 0 -8 444.7405 4954.3525)">
	<stop  offset="0" style="stop-color:#006DF0"/>
	<stop  offset="1" style="stop-color:#00E7F0"/>
</linearGradient>
<path style="fill:url(#SVGID_1_);" d="M249.466,481.484c-17.673,0-32-14.327-32-32c0-14.608,20.84-52.48,25.024-59.912
	c2.504-3.853,7.657-4.946,11.51-2.442c0.976,0.634,1.808,1.466,2.442,2.442c4.224,7.432,25.024,45.304,25.024,59.912
	C281.466,467.157,267.139,481.484,249.466,481.484L249.466,481.484z M249.466,410.38c-7.124,12.228-12.509,25.389-16,39.104
	c0,8.837,7.163,16,16,16c8.837,0,16-7.163,16-16C261.974,435.769,256.589,422.608,249.466,410.38z"/>
<g>
	
		<linearGradient id="SVGID_2_" gradientUnits="userSpaceOnUse" x1="-57.6384" y1="575.0898" x2="7.3726" y2="575.0898" gradientTransform="matrix(8 0 0 -8 444.7405 4954.3525)">
		<stop  offset="0" style="stop-color:#006DF0"/>
		<stop  offset="1" style="stop-color:#00E7F0"/>
	</linearGradient>
	<path style="fill:url(#SVGID_2_);" d="M201.466,401.484c-17.673,0-32-14.327-32-32c0-14.608,20.84-52.48,25.024-59.912
		c2.504-3.853,7.657-4.946,11.51-2.442c0.976,0.634,1.808,1.466,2.442,2.442c4.224,7.432,25.024,45.304,25.024,59.912
		C233.466,387.157,219.139,401.484,201.466,401.484z M201.466,330.38c-7.124,12.228-12.509,25.389-16,39.104c0,8.837,7.163,16,16,16
		s16-7.163,16-16C213.974,355.769,208.589,342.608,201.466,330.38z"/>
	
		<linearGradient id="SVGID_3_" gradientUnits="userSpaceOnUse" x1="-57.6384" y1="575.0898" x2="7.3726" y2="575.0898" gradientTransform="matrix(8 0 0 -8 444.7405 4954.3525)">
		<stop  offset="0" style="stop-color:#006DF0"/>
		<stop  offset="1" style="stop-color:#00E7F0"/>
	</linearGradient>
	<path style="fill:url(#SVGID_3_);" d="M297.466,401.484c-17.673,0-32-14.327-32-32c0-14.608,20.8-52.48,25.024-59.912
		c2.504-3.853,7.657-4.946,11.51-2.442c0.976,0.634,1.808,1.466,2.442,2.442c4.224,7.432,25.024,45.304,25.024,59.912
		C329.466,387.157,315.139,401.484,297.466,401.484L297.466,401.484z M297.466,330.38c-7.124,12.228-12.509,25.389-16,39.104
		c0,8.837,7.163,16,16,16s16-7.163,16-16C309.974,355.769,304.589,342.608,297.466,330.38z"/>
</g>
<g>
	
		<linearGradient id="SVGID_4_" gradientUnits="userSpaceOnUse" x1="-57.6384" y1="565.0898" x2="7.3726" y2="565.0898" gradientTransform="matrix(8 0 0 -8 444.7405 4954.3525)">
		<stop  offset="0" style="stop-color:#006DF0"/>
		<stop  offset="1" style="stop-color:#00E7F0"/>
	</linearGradient>
	<path style="fill:url(#SVGID_4_);" d="M153.466,481.484c-17.673,0-32-14.327-32-32c0-14.608,20.84-52.48,25.024-59.912
		c2.504-3.853,7.657-4.946,11.51-2.442c0.976,0.634,1.808,1.466,2.442,2.442c4.224,7.432,25.024,45.304,25.024,59.912
		C185.466,467.157,171.139,481.484,153.466,481.484z M153.466,410.38c-7.124,12.228-12.509,25.389-16,39.104c0,8.837,7.163,16,16,16
		s16-7.163,16-16C165.974,435.769,160.589,422.608,153.466,410.38z"/>
	
		<linearGradient id="SVGID_5_" gradientUnits="userSpaceOnUse" x1="-57.6384" y1="565.0898" x2="7.3726" y2="565.0898" gradientTransform="matrix(8 0 0 -8 444.7405 4954.3525)">
		<stop  offset="0" style="stop-color:#006DF0"/>
		<stop  offset="1" style="stop-color:#00E7F0"/>
	</linearGradient>
	<path style="fill:url(#SVGID_5_);" d="M345.466,481.484c-17.673,0-32-14.327-32-32c0-14.608,20.8-52.48,25.024-59.912
		c2.504-3.853,7.657-4.946,11.51-2.442c0.976,0.634,1.808,1.466,2.442,2.442c4.224,7.432,25.024,45.304,25.024,59.912
		C377.466,467.157,363.139,481.484,345.466,481.484L345.466,481.484z M345.466,410.38c-7.124,12.228-12.509,25.389-16,39.104
		c0,8.837,7.163,16,16,16s16-7.163,16-16C357.974,435.769,352.589,422.608,345.466,410.38z"/>
</g>
<linearGradient id="SVGID_6_" gradientUnits="userSpaceOnUse" x1="-57.6384" y1="590.6996" x2="7.3726" y2="590.6996" gradientTransform="matrix(8 0 0 -8 444.7405 4954.3525)">
	<stop  offset="0" style="stop-color:#006DF0"/>
	<stop  offset="1" style="stop-color:#00E7F0"/>
</linearGradient>
<path style="fill:url(#SVGID_6_);" d="M399.322,281.676c1.419-7.986,2.137-16.081,2.144-24.192
	c-0.084-75.076-60.924-135.916-136-136c-8.195,0.026-16.371,0.781-24.432,2.256c0.264-3.36,0.432-6.776,0.432-10.256
	c-0.013-46.863-25.597-89.984-66.72-112.456c-3.867-2.137-8.734-0.735-10.871,3.132c-1.328,2.403-1.331,5.318-0.009,7.724
	c29.508,54.439,9.297,122.492-45.142,152c-33.329,18.065-73.529,18.065-106.858,0c-3.868-2.135-8.735-0.73-10.87,3.138
	c-1.33,2.41-1.328,5.334,0.006,7.742c25.186,46.817,76.905,72.951,129.536,65.456c-0.488,4-0.8,8-0.976,12.056
	C73.666,239.056,17.637,273.652,4.418,329.548S25.795,441.473,81.69,454.692c7.791,1.843,15.769,2.779,23.775,2.792
	c4.418,0,8-3.582,8-8s-3.582-8-8-8c-48.601,0-88-39.399-88-88s39.399-88,88-88c10.034-0.036,19.999,1.672,29.448,5.048
	c4.157,1.498,8.741-0.657,10.239-4.813c0.396-1.099,0.547-2.271,0.441-3.435c-0.128-1.6-0.128-3.2-0.128-4.8
	c-0.008-8.519,0.871-17.015,2.624-25.352c1.749-8.132,4.333-16.063,7.712-23.664c14.615-32.869,43.265-57.402,77.992-66.784
	c10.329-2.777,20.977-4.189,31.672-4.2c66.243,0.075,119.925,53.757,120,120c-0.018,10.164-1.28,20.287-3.76,30.144
	c-1.069,4.287,1.541,8.629,5.828,9.697c0.791,0.197,1.607,0.272,2.42,0.223c1.112-0.064,2.304-0.064,3.512-0.064
	c39.764,0,72,32.236,72,72s-32.236,72-72,72c-4.418,0-8,3.582-8,8s3.582,8,8,8c48.601,0.025,88.021-39.353,88.046-87.954
	C481.536,323.166,445.584,284.737,399.322,281.676L399.322,281.676z M30.346,188.604c11.427,3.234,23.245,4.876,35.12,4.88
	c70.658-0.084,127.916-57.342,128-128c-0.005-11.875-1.647-23.693-4.88-35.12c23.484,21.252,36.881,51.447,36.88,83.12
	c0.01,4.755-0.287,9.507-0.888,14.224c-0.752,0.24-1.472,0.528-2.224,0.8c-1.256,0.424-2.504,0.856-3.744,1.312
	c-1.6,0.584-3.2,1.208-4.8,1.856c-1.24,0.504-2.472,1.016-3.688,1.6c-1.544,0.68-3.056,1.4-4.568,2.136
	c-1.2,0.584-2.4,1.176-3.584,1.792c-1.488,0.8-2.936,1.6-4.392,2.4c-1.144,0.656-2.296,1.304-3.424,2
	c-1.44,0.88-2.84,1.816-4.248,2.752c-1.072,0.712-2.152,1.408-3.2,2.144c-1.432,1.016-2.816,2.088-4.208,3.152
	c-0.952,0.736-1.936,1.448-2.872,2.208c-1.512,1.224-2.96,2.512-4.416,3.8c-0.76,0.672-1.544,1.304-2.288,1.992
	c-4.338,4.017-8.408,8.314-12.184,12.864c-0.568,0.68-1.088,1.408-1.648,2.104c-1.288,1.6-2.576,3.2-3.792,4.92
	c-0.632,0.872-1.216,1.784-1.832,2.672c-1.072,1.6-2.144,3.112-3.152,4.72c-0.616,0.976-1.184,1.984-1.776,2.984
	c-0.928,1.6-1.856,3.136-2.72,4.744c-0.576,1.056-1.104,2.136-1.648,3.2c-0.8,1.6-1.6,3.2-2.36,4.856
	c-0.512,1.112-0.992,2.248-1.472,3.384c-0.696,1.6-1.368,3.288-2.008,4.96c-0.44,1.176-0.864,2.4-1.28,3.56
	c-0.584,1.672-1.136,3.352-1.656,5.056c-0.373,1.237-0.733,2.485-1.08,3.744c-0.208,0.752-0.464,1.488-0.656,2.256
	C95.471,230.662,56.387,217.394,30.346,188.604L30.346,188.604z"/>
<g>
</g>
<g>
</g>
<g>
</g>
<g>
</g>
<g>
</g>
<g>
</g>
<g>
</g>
<g>
</g>
<g>
</g>
<g>
</g>
<g>
</g>
<g>
</g>
<g>
</g>
<g>
</g>
<g>
</g>
</svg>
