<?xml version="1.0" encoding="iso-8859-1"?>
<!-- Generator: Adobe Illustrator 19.0.0, SVG Export Plug-In . SVG Version: 6.00 Build 0)  -->
<svg version="1.1" id="Capa_1" xmlns="http://www.w3.org/2000/svg" xmlns:xlink="http://www.w3.org/1999/xlink" x="0px" y="0px"
	 viewBox="0 0 479.889 479.889" style="enable-background:new 0 0 479.889 479.889;" xml:space="preserve">
<linearGradient id="SVGID_1_" gradientUnits="userSpaceOnUse" x1="-57.8203" y1="558.7209" x2="0.8137" y2="558.7209" gradientTransform="matrix(8 0 0 -8 456.1222 4773.1621)">
	<stop  offset="0" style="stop-color:#006DF0"/>
	<stop  offset="1" style="stop-color:#00E7F0"/>
</linearGradient>
<path style="fill:url(#SVGID_1_);" d="M202.8,466.639l19.904-149.288H152.4l125.088-177.2l-20.2,121.2h68.68L202.8,466.639z
	 M183.28,301.351h57.696l-12.096,90.712l68.832-114.712h-59.32l11.8-70.8L183.28,301.351z"/>
<linearGradient id="SVGID_2_" gradientUnits="userSpaceOnUse" x1="-57.8203" y1="573.9827" x2="0.8137" y2="573.9827" gradientTransform="matrix(8 0 0 -8 456.1222 4773.1621)">
	<stop  offset="0" style="stop-color:#006DF0"/>
	<stop  offset="1" style="stop-color:#00E7F0"/>
</linearGradient>
<path style="fill:url(#SVGID_2_);" d="M391.84,349.351h-64c-4.418,0-8-3.582-8-8s3.582-8,8-8h64c39.764,0,72-32.236,72-72
	s-32.236-72-72-72c-1.208,0-2.4,0-3.512,0.064c-2.55,0.186-5.03-0.886-6.64-2.872c-1.627-1.963-2.221-4.583-1.6-7.056
	c2.476-9.854,3.736-19.975,3.752-30.136c0-66.274-53.726-120-120-120s-120,53.726-120,120c0,1.6,0,3.2,0.128,4.8
	c0.383,4.402-2.874,8.281-7.276,8.664c-1.151,0.1-2.309-0.05-3.396-0.44c-9.454-3.367-19.421-5.067-29.456-5.024
	c-48.601,0-88,39.399-88,88s39.399,88,88,88h32c4.418,0,8,3.582,8,8s-3.582,8-8,8h-32C46.402,349.263-0.088,302.629,0,245.191
	s46.723-103.928,104.16-103.84c8.006,0.012,15.984,0.949,23.775,2.792c2.821-75.058,65.955-133.617,141.012-130.796
	c73.11,2.748,130.945,62.842,130.892,136.004c-0.007,8.111-0.725,16.206-2.144,24.192c48.495,3.209,85.207,45.123,81.998,93.618
	C476.633,313.424,438.203,349.376,391.84,349.351z"/>
<g>
</g>
<g>
</g>
<g>
</g>
<g>
</g>
<g>
</g>
<g>
</g>
<g>
</g>
<g>
</g>
<g>
</g>
<g>
</g>
<g>
</g>
<g>
</g>
<g>
</g>
<g>
</g>
<g>
</g>
</svg>
