<?xml version="1.0" encoding="iso-8859-1"?>
<!-- Generator: Adobe Illustrator 19.0.0, SVG Export Plug-In . SVG Version: 6.00 Build 0)  -->
<svg version="1.1" id="Capa_1" xmlns="http://www.w3.org/2000/svg" xmlns:xlink="http://www.w3.org/1999/xlink" x="0px" y="0px"
	 viewBox="0 0 479.889 479.889" style="enable-background:new 0 0 479.889 479.889;" xml:space="preserve">
<linearGradient id="SVGID_1_" gradientUnits="userSpaceOnUse" x1="-56.5453" y1="584.6267" x2="3.9417" y2="584.6267" gradientTransform="matrix(8 0 0 -8 456.1224 4868.9585)">
	<stop  offset="0" style="stop-color:#006DF0"/>
	<stop  offset="1" style="stop-color:#00E7F0"/>
</linearGradient>
<path style="fill:url(#SVGID_1_);" d="M391.84,359.995c-4.418,0-8-3.582-8-8s3.582-8,8-8c39.764,0,72-32.236,72-72s-32.236-72-72-72
	c-1.2,0-2.4,0-3.512,0.064c-4.41,0.269-8.203-3.088-8.473-7.498c-0.05-0.817,0.026-1.636,0.225-2.43
	c2.481-9.854,3.744-19.975,3.76-30.136c0-66.274-53.726-120-120-120s-120,53.726-120,120c0,1.6,0,3.2,0.128,4.84
	c0.376,4.402-2.888,8.276-7.29,8.652c-1.149,0.098-2.305-0.053-3.39-0.444c-9.45-3.376-19.414-5.084-29.448-5.048
	c-48.601,0-88,39.399-88,88s39.399,88,88,88c4.418,0,8,3.582,8,8s-3.582,8-8,8C46.402,359.907-0.088,313.273,0,255.835
	s46.723-103.928,104.16-103.84c8.006,0.012,15.984,0.949,23.775,2.792C130.757,79.73,193.89,21.17,268.948,23.992
	c73.11,2.748,130.945,62.842,130.892,136.004c-0.006,8.111-0.724,16.206-2.144,24.192c48.495,3.209,85.207,45.123,81.998,93.618
	C476.633,324.068,438.203,360.02,391.84,359.995L391.84,359.995z"/>
<g>
	
		<linearGradient id="SVGID_2_" gradientUnits="userSpaceOnUse" x1="-56.5453" y1="562.6204" x2="3.9417" y2="562.6204" gradientTransform="matrix(8 0 0 -8 456.1224 4868.9585)">
		<stop  offset="0" style="stop-color:#006DF0"/>
		<stop  offset="1" style="stop-color:#00E7F0"/>
	</linearGradient>
	<path style="fill:url(#SVGID_2_);" d="M274.48,347.995c-2.209-3.826-7.102-5.137-10.928-2.928l-15.712,9.072v-18.144
		c0-4.418-3.582-8-8-8s-8,3.582-8,8v18.144l-15.712-9.072c-3.841-2.183-8.725-0.84-10.908,3.002
		c-2.163,3.805-0.867,8.641,2.908,10.854l15.712,9.072l-15.712,9.072c-3.841,2.183-5.185,7.067-3.002,10.908
		c2.183,3.841,7.067,5.185,10.908,3.002c0.031-0.018,0.062-0.036,0.093-0.054l15.712-9.072v18.144c0,4.418,3.582,8,8,8s8-3.582,8-8
		v-18.144l15.712,9.072c3.811,2.235,8.713,0.957,10.948-2.854c2.235-3.811,0.957-8.713-2.854-10.948
		c-0.031-0.018-0.062-0.036-0.093-0.054l-15.712-9.072l15.712-9.072C275.378,356.714,276.689,351.822,274.48,347.995L274.48,347.995
		z"/>
	
		<linearGradient id="SVGID_3_" gradientUnits="userSpaceOnUse" x1="-56.5453" y1="556.6204" x2="3.9417" y2="556.6204" gradientTransform="matrix(8 0 0 -8 456.1224 4868.9585)">
		<stop  offset="0" style="stop-color:#006DF0"/>
		<stop  offset="1" style="stop-color:#00E7F0"/>
	</linearGradient>
	<path style="fill:url(#SVGID_3_);" d="M194.48,395.995c-2.209-3.826-7.102-5.137-10.928-2.928l-15.712,9.072v-18.144
		c0-4.418-3.582-8-8-8s-8,3.582-8,8v18.144l-15.712-9.072c-3.841-2.183-8.725-0.84-10.908,3.002
		c-2.163,3.805-0.867,8.641,2.908,10.854l15.712,9.072l-15.712,9.072c-3.841,2.183-5.185,7.067-3.002,10.908
		c2.183,3.841,7.067,5.185,10.908,3.002c0.031-0.018,0.062-0.036,0.093-0.054l15.712-9.072v18.144c0,4.418,3.582,8,8,8s8-3.582,8-8
		v-18.144l15.712,9.072c3.811,2.235,8.713,0.957,10.948-2.854s0.957-8.713-2.854-10.948c-0.031-0.018-0.062-0.036-0.093-0.054
		l-15.712-9.072l15.712-9.072C195.378,404.714,196.689,399.822,194.48,395.995L194.48,395.995z"/>
	
		<linearGradient id="SVGID_4_" gradientUnits="userSpaceOnUse" x1="-56.5453" y1="568.6204" x2="3.9417" y2="568.6204" gradientTransform="matrix(8 0 0 -8 456.1224 4868.9585)">
		<stop  offset="0" style="stop-color:#006DF0"/>
		<stop  offset="1" style="stop-color:#00E7F0"/>
	</linearGradient>
	<path style="fill:url(#SVGID_4_);" d="M194.48,299.995c-2.209-3.826-7.102-5.137-10.928-2.928l-15.712,9.072v-18.144
		c0-4.418-3.582-8-8-8s-8,3.582-8,8v18.144l-15.712-9.072c-3.841-2.183-8.725-0.84-10.908,3.002
		c-2.163,3.805-0.867,8.641,2.908,10.854l15.712,9.072l-15.712,9.072c-3.841,2.183-5.185,7.067-3.002,10.908
		c2.183,3.841,7.067,5.185,10.908,3.002c0.031-0.018,0.062-0.036,0.093-0.054l15.712-9.072v18.144c0,4.418,3.582,8,8,8s8-3.582,8-8
		v-18.144l15.712,9.072c3.811,2.235,8.713,0.957,10.948-2.854s0.957-8.713-2.854-10.948c-0.031-0.018-0.062-0.036-0.093-0.054
		l-15.712-9.072l15.712-9.072C195.378,308.714,196.689,303.822,194.48,299.995L194.48,299.995z"/>
	
		<linearGradient id="SVGID_5_" gradientUnits="userSpaceOnUse" x1="-56.5453" y1="556.6204" x2="3.9417" y2="556.6204" gradientTransform="matrix(8 0 0 -8 456.1224 4868.9585)">
		<stop  offset="0" style="stop-color:#006DF0"/>
		<stop  offset="1" style="stop-color:#00E7F0"/>
	</linearGradient>
	<path style="fill:url(#SVGID_5_);" d="M354.48,395.995c-2.209-3.826-7.102-5.137-10.928-2.928l-15.712,9.072v-18.144
		c0-4.418-3.582-8-8-8s-8,3.582-8,8v18.144l-15.712-9.072c-3.841-2.183-8.725-0.84-10.908,3.002
		c-2.163,3.805-0.867,8.641,2.908,10.854l15.712,9.072l-15.712,9.072c-3.841,2.183-5.185,7.067-3.002,10.908
		c2.183,3.841,7.067,5.185,10.908,3.002c0.031-0.018,0.062-0.036,0.093-0.054l15.712-9.072v18.144c0,4.418,3.582,8,8,8s8-3.582,8-8
		v-18.144l15.712,9.072c3.811,2.235,8.713,0.957,10.948-2.854c2.235-3.811,0.957-8.713-2.854-10.948
		c-0.031-0.018-0.062-0.036-0.093-0.054l-15.712-9.072l15.712-9.072C355.378,404.714,356.689,399.822,354.48,395.995L354.48,395.995
		z"/>
	
		<linearGradient id="SVGID_6_" gradientUnits="userSpaceOnUse" x1="-56.5453" y1="568.6204" x2="3.9417" y2="568.6204" gradientTransform="matrix(8 0 0 -8 456.1224 4868.9585)">
		<stop  offset="0" style="stop-color:#006DF0"/>
		<stop  offset="1" style="stop-color:#00E7F0"/>
	</linearGradient>
	<path style="fill:url(#SVGID_6_);" d="M351.552,329.067l-15.712-9.072l15.712-9.072c3.811-2.235,5.089-7.136,2.854-10.948
		c-2.214-3.775-7.05-5.071-10.854-2.908l-15.712,9.072v-18.144c0-4.418-3.582-8-8-8s-8,3.582-8,8v18.144l-15.712-9.072
		c-3.841-2.183-8.725-0.84-10.908,3.002c-2.163,3.805-0.867,8.641,2.908,10.854l15.712,9.072l-15.712,9.072
		c-3.841,2.183-5.185,7.067-3.002,10.908c2.183,3.841,7.067,5.185,10.908,3.002c0.031-0.018,0.062-0.036,0.093-0.054l15.712-9.072
		v18.144c0,4.418,3.582,8,8,8s8-3.582,8-8v-18.144l15.712,9.072c3.811,2.235,8.713,0.957,10.948-2.854
		c2.235-3.811,0.957-8.713-2.854-10.948C351.614,329.103,351.583,329.085,351.552,329.067z"/>
</g>
<g>
</g>
<g>
</g>
<g>
</g>
<g>
</g>
<g>
</g>
<g>
</g>
<g>
</g>
<g>
</g>
<g>
</g>
<g>
</g>
<g>
</g>
<g>
</g>
<g>
</g>
<g>
</g>
<g>
</g>
</svg>
