<?xml version="1.0" encoding="iso-8859-1"?>
<!-- Generator: Adobe Illustrator 19.0.0, SVG Export Plug-In . SVG Version: 6.00 Build 0)  -->
<svg version="1.1" id="Capa_1" xmlns="http://www.w3.org/2000/svg" xmlns:xlink="http://www.w3.org/1999/xlink" x="0px" y="0px"
	 viewBox="0 0 479.889 479.889" style="enable-background:new 0 0 479.889 479.889;" xml:space="preserve">
<linearGradient id="SVGID_1_" gradientUnits="userSpaceOnUse" x1="-55.8173" y1="584.6267" x2="1.7077" y2="584.6267" gradientTransform="matrix(8 0 0 -8 456.1222 4868.958)">
	<stop  offset="0" style="stop-color:#006DF0"/>
	<stop  offset="1" style="stop-color:#00E7F0"/>
</linearGradient>
<path style="fill:url(#SVGID_1_);" d="M391.84,359.995h-288C46.402,359.907-0.088,313.273,0,255.835s46.723-103.928,104.16-103.84
	c8.006,0.012,15.984,0.949,23.775,2.792C130.757,79.73,193.89,21.17,268.948,23.992c73.11,2.748,130.945,62.842,130.892,136.004
	c-0.007,8.111-0.725,16.206-2.144,24.192c48.495,3.209,85.207,45.123,81.998,93.618C476.633,324.068,438.203,360.02,391.84,359.995z
	 M103.84,167.995c-48.601,0-88,39.399-88,88s39.399,88,88,88h288c39.764,0,72-32.236,72-72s-32.236-72-72-72
	c-1.208,0-2.4,0-3.512,0.064c-2.55,0.188-5.03-0.885-6.64-2.872c-1.627-1.963-2.221-4.583-1.6-7.056
	c2.476-9.854,3.736-19.975,3.752-30.136c0-66.274-53.726-120-120-120s-120,53.726-120,120c0,1.6,0,3.2,0.128,4.8
	c0.383,4.402-2.874,8.281-7.276,8.664c-1.151,0.1-2.309-0.05-3.396-0.44C123.842,169.653,113.875,167.953,103.84,167.995z"/>
<g>
	
		<linearGradient id="SVGID_2_" gradientUnits="userSpaceOnUse" x1="-55.8173" y1="560.6204" x2="1.7077" y2="560.6204" gradientTransform="matrix(8 0 0 -8 456.1222 4868.958)">
		<stop  offset="0" style="stop-color:#006DF0"/>
		<stop  offset="1" style="stop-color:#00E7F0"/>
	</linearGradient>
	<path style="fill:url(#SVGID_2_);" d="M431.84,391.995h-384c-4.418,0-8-3.582-8-8s3.582-8,8-8h384c4.418,0,8,3.582,8,8
		S436.258,391.995,431.84,391.995z"/>
	
		<linearGradient id="SVGID_3_" gradientUnits="userSpaceOnUse" x1="-55.8173" y1="556.6204" x2="1.7077" y2="556.6204" gradientTransform="matrix(8 0 0 -8 456.1222 4868.958)">
		<stop  offset="0" style="stop-color:#006DF0"/>
		<stop  offset="1" style="stop-color:#00E7F0"/>
	</linearGradient>
	<path style="fill:url(#SVGID_3_);" d="M431.84,423.995h-384c-4.418,0-8-3.582-8-8s3.582-8,8-8h384c4.418,0,8,3.582,8,8
		S436.258,423.995,431.84,423.995z"/>
	
		<linearGradient id="SVGID_4_" gradientUnits="userSpaceOnUse" x1="-55.8173" y1="552.6204" x2="1.7077" y2="552.6204" gradientTransform="matrix(8 0 0 -8 456.1222 4868.958)">
		<stop  offset="0" style="stop-color:#006DF0"/>
		<stop  offset="1" style="stop-color:#00E7F0"/>
	</linearGradient>
	<path style="fill:url(#SVGID_4_);" d="M431.84,455.995h-384c-4.418,0-8-3.582-8-8s3.582-8,8-8h384c4.418,0,8,3.582,8,8
		S436.258,455.995,431.84,455.995z"/>
</g>
<g>
</g>
<g>
</g>
<g>
</g>
<g>
</g>
<g>
</g>
<g>
</g>
<g>
</g>
<g>
</g>
<g>
</g>
<g>
</g>
<g>
</g>
<g>
</g>
<g>
</g>
<g>
</g>
<g>
</g>
</svg>
