<?xml version="1.0" encoding="iso-8859-1"?>
<!-- Generator: Adobe Illustrator 19.0.0, SVG Export Plug-In . SVG Version: 6.00 Build 0)  -->
<svg version="1.1" id="Capa_1" xmlns="http://www.w3.org/2000/svg" xmlns:xlink="http://www.w3.org/1999/xlink" x="0px" y="0px"
	 viewBox="0 0 479.915 479.915" style="enable-background:new 0 0 479.915 479.915;" xml:space="preserve">
<linearGradient id="SVGID_1_" gradientUnits="userSpaceOnUse" x1="-56.5972" y1="620.6334" x2="3.1008" y2="620.6334" gradientTransform="matrix(8 0 0 -8 455.9395 5301.0757)">
	<stop  offset="0" style="stop-color:#006DF0"/>
	<stop  offset="1" style="stop-color:#00E7F0"/>
</linearGradient>
<path style="fill:url(#SVGID_1_);" d="M279.866,344.008h-208c-4.418,0-8-3.582-8-8s3.582-8,8-8h208c4.418,0,8,3.582,8,8
	S284.284,344.008,279.866,344.008z"/>
<g>
	
		<linearGradient id="SVGID_2_" gradientUnits="userSpaceOnUse" x1="-56.5972" y1="616.6334" x2="3.1008" y2="616.6334" gradientTransform="matrix(8 0 0 -8 455.9395 5301.0757)">
		<stop  offset="0" style="stop-color:#006DF0"/>
		<stop  offset="1" style="stop-color:#00E7F0"/>
	</linearGradient>
	<path style="fill:url(#SVGID_2_);" d="M311.866,376.008h-208c-4.418,0-8-3.582-8-8s3.582-8,8-8h208c4.418,0,8,3.582,8,8
		S316.284,376.008,311.866,376.008z"/>
	
		<linearGradient id="SVGID_3_" gradientUnits="userSpaceOnUse" x1="-56.5972" y1="612.6334" x2="3.1008" y2="612.6334" gradientTransform="matrix(8 0 0 -8 455.9395 5301.0757)">
		<stop  offset="0" style="stop-color:#006DF0"/>
		<stop  offset="1" style="stop-color:#00E7F0"/>
	</linearGradient>
	<path style="fill:url(#SVGID_3_);" d="M279.866,408.008h-208c-4.418,0-8-3.582-8-8s3.582-8,8-8h208c4.418,0,8,3.582,8,8
		S284.284,408.008,279.866,408.008z"/>
	
		<linearGradient id="SVGID_4_" gradientUnits="userSpaceOnUse" x1="-56.5972" y1="632.6398" x2="3.1008" y2="632.6398" gradientTransform="matrix(8 0 0 -8 455.9395 5301.0757)">
		<stop  offset="0" style="stop-color:#006DF0"/>
		<stop  offset="1" style="stop-color:#00E7F0"/>
	</linearGradient>
	<path style="fill:url(#SVGID_4_);" d="M391.866,408.008h-64c-4.418,0-8-3.582-8-8s3.582-8,8-8h64c39.764,0,72-32.236,72-72
		s-32.236-72-72-72c-1.208,0-2.4,0-3.512,0.064c-2.544,0.129-5.002-0.936-6.648-2.88c-1.625-1.961-2.219-4.578-1.6-7.048
		c2.481-9.854,3.744-19.975,3.76-30.136c0-66.274-53.726-120-120-120s-120,53.726-120,120l0,0c0,1.6,0,3.2,0.128,4.848
		c0.371,4.403-2.897,8.273-7.299,8.644c-1.146,0.097-2.299-0.055-3.381-0.444c-9.45-3.376-19.414-5.084-29.448-5.048
		c-48.601-0.012-88.01,39.377-88.022,87.978c-0.006,25.374,10.94,49.515,30.03,66.23c3.479,2.723,4.092,7.751,1.369,11.231
		c-2.723,3.479-7.751,4.092-11.231,1.369c-0.238-0.187-0.466-0.387-0.682-0.599C-7.822,344.255-12.029,278.5,25.932,235.348
		c25.389-28.86,64.619-41.374,102.029-32.548c2.821-75.058,65.955-133.617,141.012-130.796
		c73.11,2.748,130.945,62.842,130.892,136.004c-0.006,8.111-0.724,16.206-2.144,24.192c48.495,3.209,85.207,45.123,81.998,93.618
		C476.659,372.081,438.229,408.033,391.866,408.008L391.866,408.008z"/>
</g>
<g>
</g>
<g>
</g>
<g>
</g>
<g>
</g>
<g>
</g>
<g>
</g>
<g>
</g>
<g>
</g>
<g>
</g>
<g>
</g>
<g>
</g>
<g>
</g>
<g>
</g>
<g>
</g>
<g>
</g>
</svg>
